<svg xmlns="http://www.w3.org/2000/svg" viewBox="0 0 721.58 107.72"><defs><style>.cls-1{fill:#2980b9;}</style></defs><title>JDM</title><g id="Calque_2" data-name="Calque 2"><g id="JD_Markdown" data-name="JD Markdown"><path d="M241.4,10.39V92a7.29,7.29,0,0,1-7.29,7.29h0A7.29,7.29,0,0,1,226.82,92V41.88q0-3.45.37-7.44L200.31,84.93a6.21,6.21,0,0,1-5.84,3.63h-2.34a6.21,6.21,0,0,1-5.84-3.63L159.11,34.25c.12,1.36.22,2.69.31,4s.12,2.52.12,3.63V92a7.29,7.29,0,0,1-7.29,7.29h0A7.29,7.29,0,0,1,145,92V10.39h12.49c.74,0,1.37,0,1.9.06a5.63,5.63,0,0,1,1.45.31,3.22,3.22,0,0,1,1.17.8A6.78,6.78,0,0,1,163,13l26.63,49.38c.7,1.31,1.34,2.67,1.94,4.06s1.18,2.83,1.75,4.31c.58-1.52,1.17-3,1.79-4.4s1.27-2.78,2-4.09L223.31,13a6.19,6.19,0,0,1,1.05-1.48,3.51,3.51,0,0,1,1.2-.8,5.64,5.64,0,0,1,1.44-.31c.54,0,1.17-.06,1.91-.06Z"/><path d="M255.73,45a37.39,37.39,0,0,1,26.19-10,25.67,25.67,0,0,1,9.91,1.82,21,21,0,0,1,7.38,5,21.79,21.79,0,0,1,4.58,7.72,29.78,29.78,0,0,1,1.57,9.84V99.32h-6.89a7,7,0,0,1-3.32-.64,4.49,4.49,0,0,1-1.85-2.62L292,91.51a52.47,52.47,0,0,1-4.68,3.78A27.13,27.13,0,0,1,282.54,98a25.28,25.28,0,0,1-5.26,1.69,30.23,30.23,0,0,1-6.18.59,24.1,24.1,0,0,1-7.38-1.08A16.21,16.21,0,0,1,257.88,96a14.58,14.58,0,0,1-3.82-5.35,19,19,0,0,1-1.35-7.44,14.92,14.92,0,0,1,.8-4.77,13.93,13.93,0,0,1,2.62-4.52,21.54,21.54,0,0,1,4.7-4.06,30.9,30.9,0,0,1,7.1-3.32,61.32,61.32,0,0,1,9.81-2.3,96.54,96.54,0,0,1,12.79-1.08V59.47q0-6.33-2.7-9.38t-7.81-3a18.4,18.4,0,0,0-6.12.86,25.51,25.51,0,0,0-4.28,1.93c-1.23.72-2.34,1.37-3.35,1.94a6.56,6.56,0,0,1-3.35.86,4.3,4.3,0,0,1-2.7-.83,7,7,0,0,1-1.79-1.93Zm34.8,27.36a85.47,85.47,0,0,0-11.07,1.14,29.79,29.79,0,0,0-7.19,2.12,9.43,9.43,0,0,0-3.88,3,6.61,6.61,0,0,0-1.16,3.75c0,2.66.78,4.57,2.36,5.72a10.25,10.25,0,0,0,6.18,1.72,18,18,0,0,0,8.09-1.69A23.89,23.89,0,0,0,290.53,83Z"/><path d="M334,47.17a27.43,27.43,0,0,1,7-8.89,15,15,0,0,1,9.6-3.23,11.73,11.73,0,0,1,7,1.91l-1,11.38a3,3,0,0,1-.9,1.57,2.49,2.49,0,0,1-1.56.46,17.34,17.34,0,0,1-2.74-.31,20.67,20.67,0,0,0-3.54-.31,12.77,12.77,0,0,0-4.49.74,11.23,11.23,0,0,0-3.53,2.12A14.35,14.35,0,0,0,337.06,56a33.53,33.53,0,0,0-2.25,4.49V91.73a7.59,7.59,0,0,1-7.59,7.59h0a7.59,7.59,0,0,1-7.6-7.59V36.22h8.92a4.92,4.92,0,0,1,3.26.83A4.91,4.91,0,0,1,333,40Z"/><path d="M380.69,15.53V60.27h2.83a6,6,0,0,0,2.43-.4,5,5,0,0,0,1.81-1.63l15.69-19.37a7.17,7.17,0,0,1,2.18-2,6.27,6.27,0,0,1,3.1-.68h13.9L403,59.65a16.28,16.28,0,0,1-4.55,4.25,11.78,11.78,0,0,1,2.31,2.15,30,30,0,0,1,1.94,2.64l21,30.63H410a7.43,7.43,0,0,1-3.08-.58,4.77,4.77,0,0,1-2.15-2.12L388.69,72.69a4.51,4.51,0,0,0-1.79-1.84,6.76,6.76,0,0,0-2.76-.43h-3.45V91.73a7.59,7.59,0,0,1-7.59,7.59h0a7.59,7.59,0,0,1-7.6-7.59V15.53a7.6,7.6,0,0,1,7.6-7.6h0A7.59,7.59,0,0,1,380.69,15.53Z"/><path d="M483.27,15.53V99.32H474a3.59,3.59,0,0,1-3.82-2.77l-1.29-6.08a31.93,31.93,0,0,1-8.76,7.07,23.72,23.72,0,0,1-11.53,2.7,20.76,20.76,0,0,1-9.47-2.15,21,21,0,0,1-7.42-6.24,29.81,29.81,0,0,1-4.79-10.12A51,51,0,0,1,425.22,68a43,43,0,0,1,1.9-13,31.76,31.76,0,0,1,5.48-10.46,25.59,25.59,0,0,1,8.54-6.92,24.75,24.75,0,0,1,11.2-2.49,22.38,22.38,0,0,1,9,1.66,23.37,23.37,0,0,1,6.7,4.49V15.53a7.6,7.6,0,0,1,7.6-7.6h0A7.59,7.59,0,0,1,483.27,15.53ZM468.08,52.34a14.85,14.85,0,0,0-5.63-4.43,16.57,16.57,0,0,0-6.55-1.29,14.56,14.56,0,0,0-6.21,1.29,12.52,12.52,0,0,0-4.73,3.9,18.79,18.79,0,0,0-3,6.64,38.57,38.57,0,0,0-1,9.51,42.36,42.36,0,0,0,.89,9.37,18.5,18.5,0,0,0,2.55,6.28,9.67,9.67,0,0,0,4.06,3.5,12.88,12.88,0,0,0,5.35,1.08,15.55,15.55,0,0,0,8.06-2,24.11,24.11,0,0,0,6.27-5.59Z"/><path d="M526.2,35.24A34.54,34.54,0,0,1,539,37.51,28,28,0,0,1,548.8,44a28.37,28.37,0,0,1,6.3,10.21,38.76,38.76,0,0,1,2.22,13.47,38.94,38.94,0,0,1-2.22,13.53,29,29,0,0,1-6.3,10.27A27.64,27.64,0,0,1,539,98a34.54,34.54,0,0,1-12.76,2.27A35,35,0,0,1,513.34,98a27.59,27.59,0,0,1-9.87-6.52,29.47,29.47,0,0,1-6.33-10.27,38.48,38.48,0,0,1-2.25-13.53,38.29,38.29,0,0,1,2.25-13.47A28.85,28.85,0,0,1,503.47,44a28,28,0,0,1,9.87-6.46A35,35,0,0,1,526.2,35.24Zm0,53.32q7.88,0,11.65-5.29t3.78-15.5q0-10.2-3.78-15.56T526.2,46.86q-8,0-11.84,5.38t-3.85,15.53q0,10.16,3.85,15.47T526.2,88.56Z"/><path d="M658,36.22l-20,63.1H625.77c-1.4,0-2.36-.9-2.89-2.7L611.56,60.15c-.37-1.23-.71-2.45-1-3.66s-.57-2.43-.77-3.66c-.25,1.23-.53,2.47-.83,3.72s-.65,2.49-1,3.72l-11.5,36.35a3.18,3.18,0,0,1-3.26,2.7H581.49l-20-63.1h12.11a4.91,4.91,0,0,1,2.83.8,3.77,3.77,0,0,1,1.54,2l9,33.7c.45,1.85.85,3.65,1.2,5.42s.65,3.52.89,5.28q.67-2.64,1.45-5.28c.51-1.77,1.05-3.57,1.63-5.42l10.45-33.82a3.87,3.87,0,0,1,1.45-2,4.26,4.26,0,0,1,2.61-.8h6.7a4.66,4.66,0,0,1,2.74.8,3.77,3.77,0,0,1,1.51,2L627.8,72.75c.53,1.85,1,3.66,1.5,5.45s.93,3.55,1.39,5.32A101.22,101.22,0,0,1,633,72.75l9.29-33.7a4.14,4.14,0,0,1,1.54-2,4.4,4.4,0,0,1,2.64-.8Z"/><path d="M680.81,44a39.62,39.62,0,0,1,4-3.53,25.14,25.14,0,0,1,4.49-2.77,24.71,24.71,0,0,1,5.07-1.79,25.41,25.41,0,0,1,5.9-.64A22.63,22.63,0,0,1,709.47,37a18.14,18.14,0,0,1,6.67,4.92,21.58,21.58,0,0,1,4.06,7.57,32.21,32.21,0,0,1,1.38,9.68V91.73A7.59,7.59,0,0,1,714,99.32h0a7.59,7.59,0,0,1-7.6-7.59V59.16q0-5.77-2.64-8.95c-1.77-2.11-4.45-3.16-8.06-3.16a15.83,15.83,0,0,0-7.38,1.78,26.41,26.41,0,0,0-6.52,4.86v38a7.59,7.59,0,0,1-7.59,7.59h0a7.59,7.59,0,0,1-7.6-7.59V36.22h9.29A3.73,3.73,0,0,1,679.76,39Z"/><path class="cls-1" d="M32.73,5.21.44,97.36a7.79,7.79,0,0,0,7.35,10.36H124.24A7.78,7.78,0,0,0,132,99.93V7.79A7.78,7.78,0,0,0,124.24,0H40.08A7.78,7.78,0,0,0,32.73,5.21Zm6.16,94.89a27.14,27.14,0,0,1-14.31-3.69,6.28,6.28,0,0,1-2.38-8.16l.09-.2a6.34,6.34,0,0,1,8.64-2.71,14.5,14.5,0,0,0,6.63,1.56c7.87,0,12.67-4.8,12.67-13.33V17a7.4,7.4,0,0,1,7.4-7.4h0A7.39,7.39,0,0,1,65,17V74C65,92,54.09,100.1,38.89,100.1Zm45.32-1.6H59.1a25.88,25.88,0,0,0,8.81-13.06h16.3c14.53,0,22.27-13.07,22.27-31.33,0-18.67-7.47-31.6-22.27-31.6H76a6.47,6.47,0,0,1-6.47-6.46h0A6.47,6.47,0,0,1,76,9.58h8.26c23.87,0,37.47,18.66,37.47,44.53S108.21,98.5,84.21,98.5Z"/></g></g></svg>